<?xml version="1.0" encoding="UTF-8"?>
<svg version="1.1" xmlns="http://www.w3.org/2000/svg" width="224" height="205">
<path d="M0 0 C73.92 0 147.84 0 224 0 C224 67.65 224 135.3 224 205 C150.08 205 76.16 205 0 205 C0 137.35 0 69.7 0 0 Z " fill="#150404" transform="translate(0,0)"/>
<path d="M0 0 C1.3307959 -0.00821777 1.3307959 -0.00821777 2.68847656 -0.01660156 C8.78165805 0.04975302 14.44771399 0.93794681 20.375 2.3125 C21.20322266 2.49321045 22.03144531 2.6739209 22.88476562 2.86010742 C36.8334332 6.06605118 52.05981143 18.16715341 59.8125 30.0625 C60.71208328 31.78959311 61.56459744 33.5418085 62.375 35.3125 C62.85839844 36.28316406 63.34179688 37.25382812 63.83984375 38.25390625 C71.54637468 56.67699819 69.10866998 80.3911074 62.46484375 98.83984375 C61.53620282 101.06295386 60.47735816 103.17045956 59.375 105.3125 C58.68857422 106.82263672 58.68857422 106.82263672 57.98828125 108.36328125 C49.52872357 126.44993847 33.51093019 151.54238916 14.94140625 160.484375 C10.72022088 161.84646221 6.75143806 161.99857527 2.375 161.3125 C-4.38794241 156.60784441 -6.98831815 147.7357216 -9.5 140.1875 C-13.16226673 129.45785136 -17.07774974 118.82405631 -21 108.1875 C-21.47780914 106.88906158 -21.47780914 106.88906158 -21.965271 105.56439209 C-22.87909592 103.08147266 -23.79465943 100.59920255 -24.7109375 98.1171875 C-24.98981812 97.35970215 -25.26869873 96.6022168 -25.55603027 95.82177734 C-26.95376045 92.00927005 -26.95376045 92.00927005 -28.625 88.3125 C-33.482583 88.76129843 -35.66420221 90.80206366 -39.125 94.125 C-40.18865834 95.13296421 -41.25246554 96.14077134 -42.31640625 97.1484375 C-42.86184082 97.67147461 -43.40727539 98.19451172 -43.96923828 98.73339844 C-46.63399209 101.27477673 -49.35065013 103.75911568 -52.0625 106.25 C-53.15399546 107.25743383 -54.24513944 108.2652486 -55.3359375 109.2734375 C-55.87831055 109.77456055 -56.42068359 110.27568359 -56.97949219 110.79199219 C-57.79401855 111.54464355 -57.79401855 111.54464355 -58.625 112.3125 C-65.46365261 118.63165853 -72.30232115 124.95067499 -79.17382812 131.23413086 C-81.67674838 133.52311574 -84.17288451 135.81870603 -86.65625 138.12890625 C-91.48859488 142.61247716 -96.36878103 146.97975274 -101.5 151.125 C-103.20928026 152.5196736 -104.91771681 153.9153824 -106.625 155.3125 C-107.30304688 155.85519531 -107.98109375 156.39789063 -108.6796875 156.95703125 C-110.60211385 158.54231339 -110.60211385 158.54231339 -112.625 161.3125 C-113.04994892 165.0064514 -113.04994892 165.0064514 -111.625 168.3125 C-109.56955734 170.03354942 -109.56955734 170.03354942 -106.625 171.3125 C-105.26422424 172.26142543 -103.91080127 173.22093194 -102.5625 174.1875 C-90.54549219 182.21214641 -78.03215542 184.69076862 -63.8125 184.5625 C-62.75877197 184.55790771 -61.70504395 184.55331543 -60.61938477 184.54858398 C-53.09355566 184.46095963 -46.00736973 183.81419322 -38.625 182.3125 C-37.18912241 182.09326366 -35.75180207 181.88299575 -34.3125 181.6875 C-33.425625 181.56375 -32.53875 181.44 -31.625 181.3125 C-34.4747289 183.67999221 -36.76111112 184.83506797 -40.36328125 185.6640625 C-41.26626953 185.87546875 -42.16925781 186.086875 -43.09960938 186.3046875 C-44.50436523 186.61792969 -44.50436523 186.61792969 -45.9375 186.9375 C-46.86240234 187.1540625 -47.78730469 187.370625 -48.74023438 187.59375 C-69.26551996 192.320255 -89.6386048 191.36557753 -108.625 181.3125 C-108.625 180.6525 -108.625 179.9925 -108.625 179.3125 C-109.46998047 178.92384766 -109.46998047 178.92384766 -110.33203125 178.52734375 C-112.86960111 177.18290725 -115.03613474 175.62460305 -117.3125 173.875 C-118.49392578 172.97974609 -118.49392578 172.97974609 -119.69921875 172.06640625 C-122.59270779 169.43115964 -122.62086802 167.36291015 -122.9375 163.5 C-122.84810123 159.04631606 -121.55090328 156.75043635 -118.625 153.3125 C-116.80434604 151.62751978 -114.93120586 150.0247997 -113.03125 148.4296875 C-110.09589045 145.84695231 -107.36744773 143.09701376 -104.625 140.3125 C-100.73171171 136.36955397 -96.77330597 132.61261129 -92.55078125 129.01953125 C-90.31363389 127.03650205 -88.22445348 124.94056614 -86.125 122.8125 C-82.83467545 119.48300492 -79.45511332 116.35751799 -75.90625 113.30859375 C-73.01401021 110.77788393 -70.1942357 108.1739895 -67.375 105.5625 C-66.8186084 105.04727783 -66.2622168 104.53205566 -65.68896484 104.0012207 C-64.55655813 102.95240027 -63.42423408 101.90349056 -62.29199219 100.85449219 C-57.75290718 96.65577208 -53.18701815 92.48626128 -48.625 88.3125 C-47.58322926 87.3542798 -46.54156312 86.39594587 -45.5 85.4375 C-44.50009292 84.52073198 -43.50009631 83.60406159 -42.5 82.6875 C-41.61054687 81.87023437 -40.72109375 81.05296875 -39.8046875 80.2109375 C-36.19092808 77.06346961 -33.60359578 76.97491934 -28.9453125 77.02734375 C-24.62640139 77.55811902 -21.82634539 79.89150003 -19.08627319 83.13256836 C-17.48722505 85.51803307 -16.57333348 87.73403736 -15.61962891 90.44140625 C-15.25559967 91.46347168 -14.89157043 92.48553711 -14.51651001 93.53857422 C-14.13207733 94.63959473 -13.74764465 95.74061523 -13.3515625 96.875 C-12.94594086 98.01727051 -12.54031921 99.15954102 -12.12240601 100.33642578 C-10.825003 103.99281981 -9.53692804 107.65240734 -8.25 111.3125 C-6.96895961 114.94356358 -5.68585137 118.57386635 -4.39901733 122.20288086 C-3.5994767 124.45891041 -2.80337195 126.71616182 -2.01138306 128.97485352 C-0.90729782 132.0971452 0.22424549 135.20712048 1.375 138.3125 C1.78888977 139.44075195 2.20277954 140.56900391 2.62921143 141.73144531 C3.05143982 142.82295898 3.47366821 143.91447266 3.90869141 145.0390625 C4.28538971 146.02729004 4.66208801 147.01551758 5.05020142 148.03369141 C6.1605384 150.4543513 6.1605384 150.4543513 8.40939331 151.22140503 C10.48419903 151.51132677 10.48419903 151.51132677 12.29101562 150.04345703 C12.94779297 149.39231934 13.60457031 148.74118164 14.28125 148.0703125 C15.38835327 146.97891968 15.38835327 146.97891968 16.51782227 145.86547852 C17.68462524 144.66362915 17.68462524 144.66362915 18.875 143.4375 C19.67800537 142.61757568 20.48101074 141.79765137 21.30834961 140.95288086 C41.6746885 119.70947379 55.30408517 93.32630158 54.89697266 63.46484375 C54.40699558 50.39287626 50.59173557 38.94864505 41.42578125 29.25 C39.48007035 27.47630676 37.492379 25.87591356 35.375 24.3125 C34.77171875 23.85230469 34.1684375 23.39210938 33.546875 22.91796875 C22.48507937 15.22583775 8.99209613 14.13102734 -4.0625 14.1875 C-4.95259766 14.18363281 -5.84269531 14.17976563 -6.75976562 14.17578125 C-15.49742023 14.18854627 -23.43514118 14.94310652 -31.75 17.6875 C-32.74580078 18.00074219 -32.74580078 18.00074219 -33.76171875 18.3203125 C-49.43592701 23.35078247 -63.66328629 31.26647672 -76.625 41.3125 C-77.60339844 42.06660156 -78.58179688 42.82070313 -79.58984375 43.59765625 C-98.46513493 58.60788079 -113.50777514 77.4340584 -121.625 100.3125 C-122.21474609 101.96765625 -122.21474609 101.96765625 -122.81640625 103.65625 C-126.20944595 114.53289293 -126.04921531 125.02021474 -125.625 136.3125 C-125.16609375 135.76980469 -124.7071875 135.22710937 -124.234375 134.66796875 C-123.62078125 133.95253906 -123.0071875 133.23710937 -122.375 132.5 C-121.47007813 131.43845703 -121.47007813 131.43845703 -120.546875 130.35546875 C-118.68688786 128.3782873 -116.89396456 126.79857803 -114.625 125.3125 C-113.965 125.3125 -113.305 125.3125 -112.625 125.3125 C-112.36412598 124.72186768 -112.10325195 124.13123535 -111.83447266 123.52270508 C-110.54893424 121.1734965 -109.23483258 119.76020333 -107.2734375 117.94921875 C-106.59458496 117.31685303 -105.91573242 116.6844873 -105.21630859 116.03295898 C-104.48492676 115.36208252 -103.75354492 114.69120605 -103 114 C-102.2467041 113.30011963 -101.4934082 112.60023926 -100.71728516 111.87915039 C-99.1429813 110.41659356 -97.56661099 108.95625823 -95.98828125 107.49804688 C-92.31109791 104.09741203 -88.6555395 100.67386262 -85 97.25 C-84.36239746 96.65598389 -83.72479492 96.06196777 -83.06787109 95.44995117 C-79.96313685 92.54890644 -76.90807058 89.61315243 -73.9140625 86.59765625 C-71.56241824 84.22984155 -69.17590425 81.96757428 -66.625 79.8125 C-63.42917231 77.05917153 -60.45284647 74.16608535 -57.50024414 71.15625 C-55.69092286 69.37731571 -53.82670135 67.71553376 -51.90234375 66.0625 C-48.41389931 63.03046506 -45.03625799 59.90454232 -41.68994141 56.71704102 C-38.96329106 54.12369801 -36.20921937 51.56066429 -33.44873047 49.00341797 C-31.93976105 47.6043387 -30.43942513 46.19595423 -28.94140625 44.78515625 C-25.1795865 41.5061369 -22.49038108 39.89448699 -17.4375 39.625 C-12.77250748 40.03661699 -9.9837114 40.87567903 -6.625 44.3125 C-2.63331096 52.35736336 0.05495027 60.99925827 2.6875 69.5625 C3.06632324 70.7901709 3.44514648 72.0178418 3.83544922 73.28271484 C6.82693739 83.09754275 9.48236815 92.99157281 12 102.9375 C12.27017441 103.99088562 12.27017441 103.99088562 12.54580688 105.06555176 C13.05320881 107.05446204 13.54840693 109.04596315 14.0390625 111.0390625 C14.46372803 112.74956787 14.46372803 112.74956787 14.89697266 114.49462891 C15.375 117.3125 15.375 117.3125 14.375 120.3125 C5.88052742 103.98164866 -1.55028639 87.30166748 -8.625 70.3125 C-9.02332031 69.35617676 -9.42164063 68.39985352 -9.83203125 67.41455078 C-11.78195174 62.72147802 -13.71440423 58.02171493 -15.625 53.3125 C-20.08622729 53.79690647 -21.91861811 55.18130198 -24.9375 58.4375 C-28.29361815 61.94817622 -31.71189271 65.20643985 -35.39453125 68.3671875 C-38.18366334 70.79974053 -40.90401197 73.30445886 -43.625 75.8125 C-48.75853161 80.5345895 -53.96407802 85.15550613 -59.24609375 89.71044922 C-66.64755981 96.09520851 -74.00233426 102.51071103 -81.2109375 109.11328125 C-83.9718586 111.62848931 -86.77886748 114.08528871 -89.59765625 116.53515625 C-91.95989173 118.60609487 -94.29295853 120.70762848 -96.625 122.8125 C-100.23495573 126.07026493 -103.8738779 129.28963007 -107.54296875 132.48046875 C-110.87375365 135.4113095 -114.1478716 138.40478948 -117.42578125 141.39453125 C-120.41424548 144.00081177 -122.05919848 145.2507762 -126.0625 145.6875 C-129.625 145.3125 -129.625 145.3125 -132 143.4375 C-137.19703976 136.64137108 -135.93700447 125.11878192 -134.9375 117 C-134.52684946 114.42873717 -134.0915237 111.87310014 -133.625 109.3125 C-133.50527832 108.6019043 -133.38555664 107.89130859 -133.26220703 107.15917969 C-131.24100474 95.40273426 -127.55423021 85.6349831 -121.625 75.3125 C-121.25632812 74.65008301 -120.88765625 73.98766602 -120.5078125 73.30517578 C-114.6877122 62.92683313 -107.6718393 54.41768713 -99.29296875 45.99951172 C-97.77231664 44.46149854 -96.28741563 42.89811512 -94.8125 41.31640625 C-83.55987701 29.51119909 -67.06549536 15.60059907 -50.625 12.3125 C-50.625 11.6525 -50.625 10.9925 -50.625 10.3125 C-50.09132813 10.14234375 -49.55765625 9.9721875 -49.0078125 9.796875 C-44.18341203 8.25272771 -44.18341203 8.25272771 -39.50390625 6.328125 C-27.36104486 0.70041741 -13.18975744 0.05854109 0 0 Z " fill="#CF3F44" transform="translate(149.625,4.6875)"/>
<path d="M0 0 C1.75183594 -0.01160156 1.75183594 -0.01160156 3.5390625 -0.0234375 C10.47984939 -0.0078752 16.89154768 0.56166222 23.625 2.25 C24.41326172 2.44134521 25.20152344 2.63269043 26.01367188 2.82983398 C36.49337904 5.53579907 45.67877074 14.58549048 51.09375 23.73046875 C57.57959124 36.1930881 58.95809196 51.33340904 55.5625 65.0625 C54.9713061 66.81110168 54.31854767 68.53941247 53.625 70.25 C53.38861816 70.84586914 53.15223633 71.44173828 52.90869141 72.05566406 C47.3513392 85.91322371 40.43515168 97.94941711 30.625 109.25 C30.625 105.60125236 31.43570698 104.90173938 33.625 102.0625 C46.3209973 84.44776947 54.42317404 62.787903 51.125 40.9375 C49.6558979 34.39331791 47.29473689 28.85300521 43.625 23.25 C43.0475 22.363125 42.47 21.47625 41.875 20.5625 C33.25504037 11.70309705 20.51706678 6.26359312 8.22680664 5.90795898 C-3.1841496 5.75985024 -13.34457277 7.67127655 -24.31591797 10.69873047 C-26.65123408 11.32395501 -28.99527165 11.82487399 -31.375 12.25 C-31.375 12.91 -31.375 13.57 -31.375 14.25 C-31.94605469 14.4459375 -32.51710938 14.641875 -33.10546875 14.84375 C-47.27702909 20.0707802 -60.8938213 29.39630768 -71.375 40.25 C-72.06980469 40.95898438 -72.76460937 41.66796875 -73.48046875 42.3984375 C-84.78607082 54.48885623 -92.31322229 67.92717302 -98.375 83.25 C-100.08142188 79.14232577 -98.54841911 76.33325838 -96.9375 72.375 C-91.38378769 58.98527264 -84.21439169 47.85336904 -74.375 37.25 C-73.86275879 36.69393066 -73.35051758 36.13786133 -72.82275391 35.56494141 C-65.35723503 27.54727322 -57.62032452 21.13227658 -48.375 15.25 C-47.56546875 14.70214844 -46.7559375 14.15429688 -45.921875 13.58984375 C-42.39395306 11.24442898 -40.71424803 10.25 -36.375 10.25 C-36.375 9.59 -36.375 8.93 -36.375 8.25 C-34.04426137 7.28492853 -31.71071249 6.32789978 -29.375 5.375 C-28.72660156 5.10558594 -28.07820313 4.83617187 -27.41015625 4.55859375 C-18.07657493 0.7697142 -10.0440596 -0.06607934 0 0 Z " fill="#E6D8D8" transform="translate(137.375,27.75)"/>
<path d="M0 0 C2.438631 2.438631 3.16569453 4.58029336 4.42578125 7.79296875 C5.12320435 9.56450317 5.12320435 9.56450317 5.8347168 11.37182617 C6.32799788 12.64345129 6.82058014 13.91534769 7.3125 15.1875 C7.68358383 16.14264999 7.68358383 16.14264999 8.06216431 17.11709595 C9.72651257 21.40450531 11.36938761 25.69964733 13 30 C13.3309668 30.87269531 13.66193359 31.74539062 14.00292969 32.64453125 C19.28132251 46.77800042 19.28132251 46.77800042 18 54 C13.87986328 58.08256708 9.86524801 60.22406796 4.4375 62.125 C3.73133545 62.37652832 3.0251709 62.62805664 2.29760742 62.88720703 C0.20551213 63.6153232 -1.89374465 64.31405083 -4 65 C-5.05445313 65.34546875 -6.10890625 65.6909375 -7.1953125 66.046875 C-21.11951616 69.90057105 -37.69443404 69.99151238 -51 64 C-52.68456287 63.03045077 -54.35716019 62.03867952 -56 61 C-53 60 -53 60 -49.59765625 61.4140625 C-43.9763342 63.66361734 -38.41786122 63.45067341 -32.4375 63.375 C-30.70040771 63.3586853 -30.70040771 63.3586853 -28.92822266 63.34204102 C-16.19827324 63.10583904 3.28992925 61.71007075 13 52 C12.56100817 44.8078505 10.83831152 38.31026368 8.75 31.4375 C8.28291626 29.86609253 8.28291626 29.86609253 7.80639648 28.26293945 C5.57699805 20.79631492 3.25596319 13.35998962 0.84765625 5.94921875 C0 3 0 3 0 0 Z " fill="#DF9D9F" transform="translate(118,111)"/>
<path d="M0 0 C0.66 0.33 1.32 0.66 2 1 C1.0615625 1.90363281 0.123125 2.80726562 -0.84375 3.73828125 C-2.06289058 4.92928782 -3.28161936 6.12071603 -4.5 7.3125 C-5.12003906 7.90740234 -5.74007812 8.50230469 -6.37890625 9.11523438 C-6.96542969 9.69208984 -7.55195312 10.26894531 -8.15625 10.86328125 C-8.70087891 11.39219971 -9.24550781 11.92111816 -9.80664062 12.46606445 C-11.30701814 14.0707277 -11.30701814 14.0707277 -11 17 C-12.60100375 18.32256832 -14.20296026 19.64399367 -15.80859375 20.9609375 C-27.5284513 31.8660456 -35.3905934 47.27530767 -41 62 C-42.70642188 57.89232577 -41.17341911 55.08325838 -39.5625 51.125 C-31.41222148 31.47507918 -17.641271 12.32763515 0 0 Z " fill="#CF7C7F" transform="translate(80,49)"/>
<path d="M0 0 C0.66 0 1.32 0 2 0 C-2.60597427 15.83303656 -10.37533735 29.44655244 -21 42 C-21.99 42.495 -21.99 42.495 -23 43 C-21.60992866 39.9624367 -19.86291208 37.28518058 -17.97875977 34.53295898 C-12.30552578 26.16384031 -8.57663994 17.42211796 -5 8 C-4.33670927 6.33198692 -3.67169885 4.66464497 -3 3 C-2.01 3 -1.02 3 0 3 C0 2.01 0 1.02 0 0 Z " fill="#DAD5D5" transform="translate(190,94)"/>
<path d="M0 0 C0.66 0.33 1.32 0.66 2 1 C1.0615625 1.90363281 0.123125 2.80726562 -0.84375 3.73828125 C-2.06289058 4.92928782 -3.28161936 6.12071603 -4.5 7.3125 C-5.12003906 7.90740234 -5.74007812 8.50230469 -6.37890625 9.11523438 C-6.96542969 9.69208984 -7.55195312 10.26894531 -8.15625 10.86328125 C-8.70087891 11.39219971 -9.24550781 11.92111816 -9.80664062 12.46606445 C-11.30701814 14.0707277 -11.30701814 14.0707277 -11 17 C-12.6796875 18.60546875 -12.6796875 18.60546875 -14.875 20.1875 C-15.95394531 20.98220703 -15.95394531 20.98220703 -17.0546875 21.79296875 C-19 23 -19 23 -21 23 C-20.42146715 19.40692798 -19.11110872 17.74545957 -16.54296875 15.21484375 C-15.49206055 14.17166992 -15.49206055 14.17166992 -14.41992188 13.10742188 C-13.31487305 12.03331055 -13.31487305 12.03331055 -12.1875 10.9375 C-11.46240234 10.21755859 -10.73730469 9.49761719 -9.99023438 8.75585938 C-6.78797394 5.60047558 -3.64909954 2.63819008 0 0 Z " fill="#D18E91" transform="translate(80,49)"/>
<path d="M0 0 C2.63851193 0.46561975 5.00614327 1.00245731 7.5 2 C12.28609037 3.36745439 16.91983815 3.46385653 21.875 3.625 C23.33679688 3.68300781 23.33679688 3.68300781 24.828125 3.7421875 C27.2185672 3.83593033 29.60901244 3.9216383 32 4 C28.91190305 5.76462683 27.76687864 6 24 6 C24 6.66 24 7.32 24 8 C15.63746296 7.32560185 6.93881952 6.08846765 0 1 C0 0.67 0 0.34 0 0 Z " fill="#C15B5E" transform="translate(62,171)"/>
<path d="M0 0 C-7.15808637 2.8521582 -14.28250987 5.2738155 -22 6 C-22.33 5.67 -22.66 5.34 -23 5 C-24.55948542 4.84313751 -26.12542668 4.74923361 -27.69140625 4.68359375 C-28.63564453 4.64169922 -29.57988281 4.59980469 -30.55273438 4.55664062 C-31.54595703 4.51732422 -32.53917969 4.47800781 -33.5625 4.4375 C-34.55958984 4.39431641 -35.55667969 4.35113281 -36.58398438 4.30664062 C-39.0558415 4.20019702 -41.5278031 4.09818072 -44 4 C-44 3.67 -44 3.34 -44 3 C-43.01157104 2.970271 -43.01157104 2.970271 -42.00317383 2.93994141 C-23.24172001 2.70620152 -23.24172001 2.70620152 -4.859375 -0.625 C-3 -1 -3 -1 0 0 Z " fill="#95171B" transform="translate(118,187)"/>
<path d="M0 0 C0.66 0.33 1.32 0.66 2 1 C1.30849854 1.65484375 0.61699707 2.3096875 -0.09545898 2.984375 C-2.67213493 5.43373097 -5.22506335 7.90669392 -7.77172852 10.38720703 C-8.87418016 11.4545961 -9.9828513 12.51560195 -11.09790039 13.56982422 C-12.70602429 15.09240197 -14.28988078 16.63705018 -15.87109375 18.1875 C-16.36902939 18.64930664 -16.86696503 19.11111328 -17.37998962 19.58691406 C-21.38559795 23.58792242 -21.78363111 26.55986784 -22 32 C-21.64933615 34.85622487 -21.64933615 34.85622487 -21 37 C-23 36 -23 36 -24 33 C-24.36958826 28.49102321 -24.49567784 26.01200892 -22.5 21.9375 C-19.9949505 18.99406683 -17.3893706 16.6211954 -14.4375 14.14453125 C-9.37897813 9.6940048 -4.72672789 4.79762881 0 0 Z " fill="#92161A" transform="translate(51,139)"/>
<path d="M0 0 C0.33 0 0.66 0 1 0 C1.6210466 5.12864287 -0.53920929 8.61938212 -2.875 13 C-3.60333754 14.39490795 -4.32994389 15.7907214 -5.0546875 17.1875 C-5.39467773 17.84105469 -5.73466797 18.49460937 -6.08496094 19.16796875 C-7.19737494 21.39517117 -8.13410955 23.6666531 -9 26 C-10.29666884 23.0047708 -9.92504507 21.76096193 -8.92578125 18.57421875 C-8.39956258 17.27391519 -7.86136048 15.97840961 -7.3125 14.6875 C-7.05533203 14.04876953 -6.79816406 13.41003906 -6.53320312 12.75195312 C-4.68804653 8.27733504 -2.47058402 4.16070032 0 0 Z " fill="#AB5255" transform="translate(48,85)"/>
<path d="M0 0 C-1.60710067 4.00348746 -4.41795967 6.7152015 -7.4375 9.6875 C-7.92798828 10.18572266 -8.41847656 10.68394531 -8.92382812 11.19726562 C-11.26685893 13.52764849 -12.82183707 14.94061236 -16 16 C-14.33536962 11.71357676 -11.20924163 8.91382783 -8 5.75 C-7.4534375 5.19570313 -6.906875 4.64140625 -6.34375 4.0703125 C-2.2533867 0 -2.2533867 0 0 0 Z " fill="#470B0D" transform="translate(67,51)"/>
<path d="M0 0 C0.66 0.33 1.32 0.66 2 1 C-5.29840547 9.44646925 -5.29840547 9.44646925 -9 13 C-9.66 12.67 -10.32 12.34 -11 12 C-3.70159453 3.55353075 -3.70159453 3.55353075 0 0 Z " fill="#452627" transform="translate(71,62)"/>
<path d="M0 0 C0.66 0.99 1.32 1.98 2 3 C0.37965717 5.14949538 -1.24595794 7.2946141 -2.875 9.4375 C-3.33519531 10.04916016 -3.79539063 10.66082031 -4.26953125 11.29101562 C-7.7734375 15.88671875 -7.7734375 15.88671875 -10 17 C-8.23576999 13.24868988 -6.06102752 9.76463789 -3.875 6.25 C-3.50246094 5.64800781 -3.12992188 5.04601562 -2.74609375 4.42578125 C-1.83225276 2.94957657 -0.91633402 1.47465846 0 0 Z " fill="#A79F9F" transform="translate(177,120)"/>
<path d="M0 0 C0.66 0.33 1.32 0.66 2 1 C0.71520959 2.50589388 -0.57804082 4.00457375 -1.875 5.5 C-2.95394531 6.75296875 -2.95394531 6.75296875 -4.0546875 8.03125 C-4.69664063 8.6809375 -5.33859375 9.330625 -6 10 C-6.66 10 -7.32 10 -8 10 C-8.33 11.32 -8.66 12.64 -9 14 C-9.28125 11.80078125 -9.28125 11.80078125 -9 9 C-7.03125 6.54296875 -7.03125 6.54296875 -4.5 4.1875 C-3.6646875 3.39730469 -2.829375 2.60710937 -1.96875 1.79296875 C-1.3190625 1.20128906 -0.669375 0.60960937 0 0 Z " fill="#540C0E" transform="translate(45,157)"/>
<path d="M0 0 C1.1484375 1.734375 1.1484375 1.734375 2 4 C1.1015625 6.140625 1.1015625 6.140625 -0.375 8.25 C-0.85710937 8.95640625 -1.33921875 9.6628125 -1.8359375 10.390625 C-2.22007812 10.92171875 -2.60421875 11.4528125 -3 12 C-4.21386936 8.35839192 -3.6674695 7.66834531 -2.0625 4.3125 C-1.49208984 3.10013672 -1.49208984 3.10013672 -0.91015625 1.86328125 C-0.60980469 1.24839844 -0.30945313 0.63351563 0 0 Z " fill="#D1CCCC" transform="translate(182,110)"/>
<path d="M0 0 C0.66 1.32 1.32 2.64 2 4 C0.69593116 6.01920337 -0.63823419 8.01924973 -2 10 C-2.33 10 -2.66 10 -3 10 C-3.36629408 5.72656908 -2.40814077 3.51187196 0 0 Z " fill="#C96F72" transform="translate(52,78)"/>
<path d="M0 0 C0.33 0 0.66 0 1 0 C0.125 6.75 0.125 6.75 -1 9 C-1.66 9 -2.32 9 -3 9 C-2.25 2.25 -2.25 2.25 0 0 Z " fill="#E9E5E5" transform="translate(186,103)"/>
<path d="M0 0 C0.66 0 1.32 0 2 0 C2 1.65 2 3.3 2 5 C1.34 5 0.68 5 0 5 C0 5.99 0 6.98 0 8 C-0.66 8 -1.32 8 -2 8 C-1.125 1.125 -1.125 1.125 0 0 Z " fill="#F2EFEF" transform="translate(190,89)"/>
<path d="M0 0 C0.66 0 1.32 0 2 0 C3.25664978 2.90600261 4 4.79604584 4 8 C3.01 8 2.02 8 1 8 C0.67 5.36 0.34 2.72 0 0 Z " fill="#D8ABAD" transform="translate(123,125)"/>
</svg>
